<mxfile host="app.diagrams.net" agent="Mozilla/5.0 (Windows NT 10.0; Win64; x64) AppleWebKit/537.36 (KHTML, like Gecko) Chrome/138.0.0.0 Safari/537.36" version="27.0.2" pages="3">
  <diagram name="Overall Arch" id="ktEbDDVXrIGKhX2a_HJS">
    <mxGraphModel dx="837" dy="531" grid="1" gridSize="10" guides="1" tooltips="1" connect="1" arrows="1" fold="1" page="1" pageScale="1" pageWidth="850" pageHeight="1100" math="0" shadow="0">
      <root>
        <mxCell id="0" />
        <mxCell id="1" parent="0" />
        <mxCell id="lzXMIc-5NiY6LFzH1Sxm-4" style="edgeStyle=orthogonalEdgeStyle;rounded=0;orthogonalLoop=1;jettySize=auto;html=1;exitX=1;exitY=0.5;exitDx=0;exitDy=0;entryX=0;entryY=0.5;entryDx=0;entryDy=0;" edge="1" parent="1" source="lzXMIc-5NiY6LFzH1Sxm-1" target="lzXMIc-5NiY6LFzH1Sxm-3">
          <mxGeometry relative="1" as="geometry" />
        </mxCell>
        <mxCell id="lzXMIc-5NiY6LFzH1Sxm-1" value="DataGeneration&lt;div&gt;Block&amp;nbsp;&lt;/div&gt;" style="rounded=0;whiteSpace=wrap;html=1;" vertex="1" parent="1">
          <mxGeometry x="280" y="290" width="140" height="120" as="geometry" />
        </mxCell>
        <mxCell id="lzXMIc-5NiY6LFzH1Sxm-2" value="Filter and Threshold Block&amp;nbsp;" style="rounded=0;whiteSpace=wrap;html=1;" vertex="1" parent="1">
          <mxGeometry x="580" y="290" width="140" height="120" as="geometry" />
        </mxCell>
        <mxCell id="lzXMIc-5NiY6LFzH1Sxm-5" style="edgeStyle=orthogonalEdgeStyle;rounded=0;orthogonalLoop=1;jettySize=auto;html=1;exitX=1;exitY=0.5;exitDx=0;exitDy=0;entryX=0;entryY=0.5;entryDx=0;entryDy=0;" edge="1" parent="1" source="lzXMIc-5NiY6LFzH1Sxm-3" target="lzXMIc-5NiY6LFzH1Sxm-2">
          <mxGeometry relative="1" as="geometry" />
        </mxCell>
        <mxCell id="lzXMIc-5NiY6LFzH1Sxm-3" value="Shared memory" style="ellipse;whiteSpace=wrap;html=1;aspect=fixed;" vertex="1" parent="1">
          <mxGeometry x="460" y="310" width="80" height="80" as="geometry" />
        </mxCell>
        <mxCell id="lzXMIc-5NiY6LFzH1Sxm-9" style="edgeStyle=orthogonalEdgeStyle;rounded=0;orthogonalLoop=1;jettySize=auto;html=1;entryX=0.5;entryY=0;entryDx=0;entryDy=0;" edge="1" parent="1" source="lzXMIc-5NiY6LFzH1Sxm-8" target="lzXMIc-5NiY6LFzH1Sxm-1">
          <mxGeometry relative="1" as="geometry" />
        </mxCell>
        <mxCell id="lzXMIc-5NiY6LFzH1Sxm-8" value="&lt;font style=&quot;font-size: 10px;&quot;&gt;Generate a csv of 1000 row and m cols&lt;/font&gt;" style="text;html=1;align=center;verticalAlign=middle;resizable=0;points=[];autosize=1;strokeColor=none;fillColor=none;" vertex="1" parent="1">
          <mxGeometry x="250" y="200" width="200" height="30" as="geometry" />
        </mxCell>
        <mxCell id="lzXMIc-5NiY6LFzH1Sxm-11" style="edgeStyle=orthogonalEdgeStyle;rounded=0;orthogonalLoop=1;jettySize=auto;html=1;" edge="1" parent="1" source="lzXMIc-5NiY6LFzH1Sxm-10" target="lzXMIc-5NiY6LFzH1Sxm-1">
          <mxGeometry relative="1" as="geometry" />
        </mxCell>
        <mxCell id="lzXMIc-5NiY6LFzH1Sxm-10" value="&lt;font style=&quot;font-size: 10px;&quot;&gt;Random Number Gen&amp;nbsp;&lt;/font&gt;" style="text;html=1;align=center;verticalAlign=middle;resizable=0;points=[];autosize=1;strokeColor=none;fillColor=none;" vertex="1" parent="1">
          <mxGeometry x="100" y="335" width="120" height="30" as="geometry" />
        </mxCell>
        <mxCell id="lzXMIc-5NiY6LFzH1Sxm-13" value="&lt;font style=&quot;font-size: 10px;&quot;&gt;Binary output to the next block&lt;/font&gt;" style="text;html=1;align=center;verticalAlign=middle;resizable=0;points=[];autosize=1;strokeColor=none;fillColor=none;" vertex="1" parent="1">
          <mxGeometry x="750" y="335" width="160" height="30" as="geometry" />
        </mxCell>
        <mxCell id="lzXMIc-5NiY6LFzH1Sxm-14" style="edgeStyle=orthogonalEdgeStyle;rounded=0;orthogonalLoop=1;jettySize=auto;html=1;entryX=0.018;entryY=0.522;entryDx=0;entryDy=0;entryPerimeter=0;" edge="1" parent="1" source="lzXMIc-5NiY6LFzH1Sxm-2" target="lzXMIc-5NiY6LFzH1Sxm-13">
          <mxGeometry relative="1" as="geometry" />
        </mxCell>
      </root>
    </mxGraphModel>
  </diagram>
  <diagram id="tHe-NJX3uZrJXFJXt7Ca" name="Data Gen Block">
    <mxGraphModel dx="693" dy="440" grid="1" gridSize="10" guides="1" tooltips="1" connect="1" arrows="1" fold="1" page="1" pageScale="1" pageWidth="850" pageHeight="1100" math="0" shadow="0">
      <root>
        <mxCell id="0" />
        <mxCell id="1" parent="0" />
        <mxCell id="AciwLgOPIirsm0JgbYt3-4" style="edgeStyle=orthogonalEdgeStyle;rounded=0;orthogonalLoop=1;jettySize=auto;html=1;exitX=1;exitY=0.5;exitDx=0;exitDy=0;entryX=0.5;entryY=0;entryDx=0;entryDy=0;" edge="1" parent="1" source="AciwLgOPIirsm0JgbYt3-1" target="AciwLgOPIirsm0JgbYt3-3">
          <mxGeometry relative="1" as="geometry" />
        </mxCell>
        <mxCell id="AciwLgOPIirsm0JgbYt3-1" value="csv file input" style="rounded=0;whiteSpace=wrap;html=1;" vertex="1" parent="1">
          <mxGeometry x="280" y="270" width="120" height="60" as="geometry" />
        </mxCell>
        <mxCell id="AciwLgOPIirsm0JgbYt3-5" style="edgeStyle=orthogonalEdgeStyle;rounded=0;orthogonalLoop=1;jettySize=auto;html=1;exitX=1;exitY=0.5;exitDx=0;exitDy=0;entryX=0.5;entryY=1;entryDx=0;entryDy=0;" edge="1" parent="1" source="AciwLgOPIirsm0JgbYt3-2" target="AciwLgOPIirsm0JgbYt3-3">
          <mxGeometry relative="1" as="geometry" />
        </mxCell>
        <mxCell id="AciwLgOPIirsm0JgbYt3-2" value="random number gen&amp;nbsp;" style="rounded=0;whiteSpace=wrap;html=1;" vertex="1" parent="1">
          <mxGeometry x="280" y="400" width="120" height="60" as="geometry" />
        </mxCell>
        <mxCell id="AciwLgOPIirsm0JgbYt3-7" style="edgeStyle=orthogonalEdgeStyle;rounded=0;orthogonalLoop=1;jettySize=auto;html=1;exitX=1;exitY=0.5;exitDx=0;exitDy=0;entryX=0;entryY=0.5;entryDx=0;entryDy=0;" edge="1" parent="1" source="AciwLgOPIirsm0JgbYt3-3" target="AciwLgOPIirsm0JgbYt3-6">
          <mxGeometry relative="1" as="geometry" />
        </mxCell>
        <mxCell id="AciwLgOPIirsm0JgbYt3-3" value="No. of args" style="rhombus;whiteSpace=wrap;html=1;" vertex="1" parent="1">
          <mxGeometry x="470" y="330" width="80" height="80" as="geometry" />
        </mxCell>
        <mxCell id="AciwLgOPIirsm0JgbYt3-8" style="edgeStyle=orthogonalEdgeStyle;rounded=0;orthogonalLoop=1;jettySize=auto;html=1;exitX=1;exitY=0.5;exitDx=0;exitDy=0;" edge="1" parent="1" source="AciwLgOPIirsm0JgbYt3-6">
          <mxGeometry relative="1" as="geometry">
            <mxPoint x="850" y="370" as="targetPoint" />
          </mxGeometry>
        </mxCell>
        <mxCell id="AciwLgOPIirsm0JgbYt3-6" value="Send data to filter block" style="rounded=0;whiteSpace=wrap;html=1;" vertex="1" parent="1">
          <mxGeometry x="620" y="340" width="120" height="60" as="geometry" />
        </mxCell>
        <mxCell id="AciwLgOPIirsm0JgbYt3-9" value="To shared&amp;nbsp;&lt;div&gt;memory&lt;/div&gt;" style="text;html=1;align=center;verticalAlign=middle;resizable=0;points=[];autosize=1;strokeColor=none;fillColor=none;" vertex="1" parent="1">
          <mxGeometry x="750" y="350" width="80" height="40" as="geometry" />
        </mxCell>
      </root>
    </mxGraphModel>
  </diagram>
  <diagram id="bcAsDHsdtQetuHRcrG7V" name="FilterAndThresholdBlock">
    <mxGraphModel dx="837" dy="531" grid="1" gridSize="10" guides="1" tooltips="1" connect="1" arrows="1" fold="1" page="1" pageScale="1" pageWidth="850" pageHeight="1100" math="0" shadow="0">
      <root>
        <mxCell id="0" />
        <mxCell id="1" parent="0" />
        <mxCell id="BVBc1Gc-h8iQMJJFXqq3-9" style="edgeStyle=orthogonalEdgeStyle;rounded=0;orthogonalLoop=1;jettySize=auto;html=1;exitX=0.5;exitY=0;exitDx=0;exitDy=0;entryX=0;entryY=0.5;entryDx=0;entryDy=0;" edge="1" parent="1" source="BVBc1Gc-h8iQMJJFXqq3-1" target="BVBc1Gc-h8iQMJJFXqq3-8">
          <mxGeometry relative="1" as="geometry" />
        </mxCell>
        <mxCell id="BVBc1Gc-h8iQMJJFXqq3-1" value="Sliding Window Thread" style="rounded=0;whiteSpace=wrap;html=1;" vertex="1" parent="1">
          <mxGeometry x="210" y="310" width="120" height="60" as="geometry" />
        </mxCell>
        <mxCell id="BVBc1Gc-h8iQMJJFXqq3-13" style="edgeStyle=orthogonalEdgeStyle;rounded=0;orthogonalLoop=1;jettySize=auto;html=1;" edge="1" parent="1" source="BVBc1Gc-h8iQMJJFXqq3-3">
          <mxGeometry relative="1" as="geometry">
            <mxPoint x="590" y="340.0000000000001" as="targetPoint" />
          </mxGeometry>
        </mxCell>
        <mxCell id="BVBc1Gc-h8iQMJJFXqq3-3" value="Filtering thread" style="rounded=0;whiteSpace=wrap;html=1;" vertex="1" parent="1">
          <mxGeometry x="410" y="310" width="120" height="60" as="geometry" />
        </mxCell>
        <mxCell id="BVBc1Gc-h8iQMJJFXqq3-6" style="edgeStyle=orthogonalEdgeStyle;rounded=0;orthogonalLoop=1;jettySize=auto;html=1;entryX=0;entryY=0.5;entryDx=0;entryDy=0;" edge="1" parent="1" source="BVBc1Gc-h8iQMJJFXqq3-4" target="BVBc1Gc-h8iQMJJFXqq3-1">
          <mxGeometry relative="1" as="geometry" />
        </mxCell>
        <mxCell id="BVBc1Gc-h8iQMJJFXqq3-4" value="Shared Memory" style="text;html=1;align=center;verticalAlign=middle;whiteSpace=wrap;rounded=0;" vertex="1" parent="1">
          <mxGeometry x="70" y="325" width="60" height="30" as="geometry" />
        </mxCell>
        <mxCell id="BVBc1Gc-h8iQMJJFXqq3-10" style="edgeStyle=orthogonalEdgeStyle;rounded=0;orthogonalLoop=1;jettySize=auto;html=1;exitX=1;exitY=0.5;exitDx=0;exitDy=0;entryX=0.5;entryY=0;entryDx=0;entryDy=0;" edge="1" parent="1" source="BVBc1Gc-h8iQMJJFXqq3-8" target="BVBc1Gc-h8iQMJJFXqq3-3">
          <mxGeometry relative="1" as="geometry" />
        </mxCell>
        <mxCell id="BVBc1Gc-h8iQMJJFXqq3-8" value="shared vector" style="ellipse;whiteSpace=wrap;html=1;aspect=fixed;" vertex="1" parent="1">
          <mxGeometry x="330" y="180" width="80" height="80" as="geometry" />
        </mxCell>
        <mxCell id="BVBc1Gc-h8iQMJJFXqq3-12" style="edgeStyle=orthogonalEdgeStyle;rounded=0;orthogonalLoop=1;jettySize=auto;html=1;entryX=0.5;entryY=1;entryDx=0;entryDy=0;" edge="1" parent="1" source="BVBc1Gc-h8iQMJJFXqq3-11" target="BVBc1Gc-h8iQMJJFXqq3-3">
          <mxGeometry relative="1" as="geometry" />
        </mxCell>
        <mxCell id="BVBc1Gc-h8iQMJJFXqq3-11" value="Threshold input" style="text;html=1;align=center;verticalAlign=middle;whiteSpace=wrap;rounded=0;" vertex="1" parent="1">
          <mxGeometry x="440" y="420" width="60" height="30" as="geometry" />
        </mxCell>
        <mxCell id="BVBc1Gc-h8iQMJJFXqq3-14" value="Boolean output&amp;nbsp;&lt;br&gt;to the next block" style="text;html=1;align=center;verticalAlign=middle;resizable=0;points=[];autosize=1;strokeColor=none;fillColor=none;" vertex="1" parent="1">
          <mxGeometry x="585" y="320" width="110" height="40" as="geometry" />
        </mxCell>
      </root>
    </mxGraphModel>
  </diagram>
</mxfile>
